<svg xmlns="http://www.w3.org/2000/svg" version="1.1" xmlns:xlink="http://www.w3.org/1999/xlink" xmlns:svgjs="http://svgjs.dev/svgjs" width="1440" height="560" preserveAspectRatio="none" viewBox="0 0 1440 560"><g mask="url(&quot;#SvgjsMask1511&quot;)" fill="none"><rect width="1440" height="560" x="0" y="0" fill="url(&quot;#SvgjsLinearGradient1512&quot;)"></rect><path d="M0 0L375.93 0L0 41.1z" fill="rgba(255, 255, 255, .1)"></path><path d="M0 41.1L375.93 0L600.21 0L0 240.29z" fill="rgba(255, 255, 255, .075)"></path><path d="M0 240.29L600.21 0L783.99 0L0 350.23z" fill="rgba(255, 255, 255, .05)"></path><path d="M0 350.23L783.99 0L1172.7 0L0 361.22z" fill="rgba(255, 255, 255, .025)"></path><path d="M1440 560L887.57 560L1440 458.95z" fill="rgba(0, 0, 0, .1)"></path><path d="M1440 458.95L887.57 560L611.8800000000001 560L1440 239.10999999999999z" fill="rgba(0, 0, 0, .075)"></path><path d="M1440 239.11L611.8800000000001 560L495.7100000000001 560L1440 132.52z" fill="rgba(0, 0, 0, .05)"></path><path d="M1440 132.51999999999998L495.71000000000015 560L176.28000000000014 560L1440 108.23999999999998z" fill="rgba(0, 0, 0, .025)"></path></g><defs><mask id="SvgjsMask1511"><rect width="1440" height="560" fill="#ffffff"></rect></mask><linearGradient x1="50%" y1="0%" x2="50%" y2="100%" gradientUnits="userSpaceOnUse" id="SvgjsLinearGradient1512"><stop stop-color="rgba(57, 73, 171, 1)" offset="0"></stop><stop stop-color="rgba(142, 36, 170, 1)" offset="1"></stop></linearGradient></defs></svg>