<svg xmlns="http://www.w3.org/2000/svg" version="1.1" xmlns:xlink="http://www.w3.org/1999/xlink" xmlns:svgjs="http://svgjs.dev/svgjs" width="1440" height="560" preserveAspectRatio="none" viewBox="0 0 1440 560"><g mask="url(&quot;#SvgjsMask2110&quot;)" fill="none"><rect width="1440" height="560" x="0" y="0" fill="url(&quot;#SvgjsLinearGradient2111&quot;)"></rect><path d="M1440 0L1201.05 0L1440 261.54z" fill="rgba(255, 255, 255, .1)"></path><path d="M1201.05 0L1440 261.54L1440 344.75L1164.11 0z" fill="rgba(255, 255, 255, .075)"></path><path d="M1164.1100000000001 0L1440 344.75L1440 469.97L804.6700000000001 0z" fill="rgba(255, 255, 255, .05)"></path><path d="M804.6700000000001 0L1440 469.97L1440 469.99L438.56000000000006 0z" fill="rgba(255, 255, 255, .025)"></path><path d="M0 560L77.49 560L0 484.15z" fill="rgba(0, 0, 0, .1)"></path><path d="M0 484.15L77.49 560L626.95 560L0 368.78z" fill="rgba(0, 0, 0, .075)"></path><path d="M0 368.78L626.95 560L691.9200000000001 560L0 181.33999999999997z" fill="rgba(0, 0, 0, .05)"></path><path d="M0 181.34000000000003L691.9200000000001 560L906.09 560L0 163.91000000000003z" fill="rgba(0, 0, 0, .025)"></path></g><defs><mask id="SvgjsMask2110"><rect width="1440" height="560" fill="#ffffff"></rect></mask><linearGradient x1="50%" y1="0%" x2="50%" y2="100%" gradientUnits="userSpaceOnUse" id="SvgjsLinearGradient2111"><stop stop-color="rgba(14, 42, 71, 1)" offset="0"></stop><stop stop-color="rgba(158, 0, 135, 1)" offset="1"></stop></linearGradient></defs></svg>